<svg width="30" height="30" viewBox="0 0 30 30" fill="none" xmlns="http://www.w3.org/2000/svg">
<mask id="mask0_67_40" style="mask-type:luminance" maskUnits="userSpaceOnUse" x="0" y="0" width="30" height="30">
<path d="M30 0H0V30H30V0Z" fill="white"/>
</mask>
<g mask="url(#mask0_67_40)">
<path d="M6.75 4.8C6.50688 4.8 6.27372 4.89482 6.10183 5.06361C5.92991 5.23238 5.83333 5.4613 5.83333 5.7V27.3C5.83333 27.5387 5.92991 27.7676 6.10183 27.9365C6.27372 28.1051 6.50688 28.2 6.75 28.2H23.25C23.4931 28.2 23.7263 28.1051 23.8983 27.9365C24.07 27.7676 24.1667 27.5387 24.1667 27.3V5.7C24.1667 5.4613 24.07 5.23238 23.8983 5.06361C23.7263 4.89482 23.4931 4.8 23.25 4.8H22.3333C22.0902 4.8 21.857 4.70518 21.6851 4.53639C21.5133 4.36762 21.4167 4.1387 21.4167 3.9C21.4167 3.6613 21.5133 3.43238 21.6851 3.26361C21.857 3.09482 22.0902 3 22.3333 3H23.25C23.9793 3 24.6789 3.28447 25.1946 3.79081C25.7103 4.29715 26 4.98392 26 5.7V27.3C26 28.016 25.7103 28.7029 25.1946 29.2093C24.6789 29.7156 23.9793 30 23.25 30H6.75C6.02066 30 5.32117 29.7156 4.80546 29.2093C4.28974 28.7029 4 28.016 4 27.3V5.7C4 4.98392 4.28974 4.29715 4.80546 3.79081C5.32117 3.28447 6.02066 3 6.75 3H7.66667C7.90978 3 8.14295 3.09482 8.31484 3.26361C8.48675 3.43238 8.58333 3.6613 8.58333 3.9C8.58333 4.1387 8.48675 4.36762 8.31484 4.53639C8.14295 4.70518 7.90978 4.8 7.66667 4.8H6.75Z" fill="#69686E" stroke="#69686E"/>
<path d="M18.3333 2C18.3333 1.73478 18.2455 1.48043 18.0892 1.29289C17.933 1.10536 17.721 1 17.5 1H12.5C12.279 1 12.067 1.10536 11.9108 1.29289C11.7545 1.48043 11.6667 1.73478 11.6667 2C11.6667 2.26522 11.5789 2.51957 11.4226 2.70711C11.2663 2.89464 11.0543 3 10.8333 3C10.6123 3 10.4004 3.10536 10.2441 3.2929C10.0878 3.48042 10 3.73478 10 4V5C10 5.26522 10.0878 5.51958 10.2441 5.7071C10.4004 5.89464 10.6123 6 10.8333 6H19.1667C19.3877 6 19.5997 5.89464 19.756 5.7071C19.9122 5.51958 20 5.26522 20 5V4C20 3.73478 19.9122 3.48042 19.756 3.2929C19.5997 3.10536 19.3877 3 19.1667 3C18.9457 3 18.7337 2.89464 18.5773 2.70711C18.4212 2.51957 18.3333 2.26522 18.3333 2Z" fill="#69686E" stroke="#69686E"/>
<path d="M11 10H20" stroke="#69686E" stroke-width="2" stroke-linecap="round"/>
<path d="M11 15H20" stroke="#69686E" stroke-width="2" stroke-linecap="round"/>
</g>
</svg>
