<svg width="32" height="32" viewBox="0 0 32 32" fill="none" xmlns="http://www.w3.org/2000/svg">
<path d="M16 12.4573L14.3237 8.54262C13.9075 7.57326 13.1856 6.1794 12.1637 5.05249C11.1587 3.94309 9.955 3.18817 8.5 3.18817C5.3575 3.18817 2.875 6.08968 2.875 9.57763C2.875 12.2275 3.91375 14.0984 6.3775 16.9518C7.00938 17.6826 7.72937 18.4725 8.52625 19.3434C10.6037 21.6191 13.1875 24.4506 16 28.2362C18.8125 24.4506 21.3963 21.6191 23.4738 19.3434C24.2706 18.4725 24.9925 17.6804 25.6225 16.9518C28.0862 14.0984 29.125 12.2275 29.125 9.57763C29.125 6.08968 26.6425 3.18817 23.5 3.18817C22.0431 3.18817 20.8412 3.94309 19.8362 5.05249C18.8144 6.1794 18.0925 7.57326 17.6763 8.54262L16 12.4573ZM16.735 30.6016C16.6447 30.7264 16.5322 30.8267 16.4052 30.8955C16.2783 30.9643 16.14 31 16 31C15.86 31 15.7217 30.9643 15.5948 30.8955C15.4678 30.8267 15.3553 30.7264 15.265 30.6016C12.2631 26.4397 9.54625 23.4638 7.30938 21.0152C3.4375 16.7723 1 14.105 1 9.57763C1 4.84024 4.35625 1 8.5 1C11.5 1 13.5981 3.29758 14.8825 5.39385C15.37 6.19253 15.7413 6.96058 16 7.56451C16.3244 6.80866 16.698 6.08297 17.1175 5.39385C18.4019 3.29539 20.5 1 23.5 1C27.6438 1 31 4.84024 31 9.57763C31 14.105 28.5625 16.7723 24.6906 21.0152C22.4538 23.4659 19.7369 26.444 16.735 30.6016Z" fill="#69686E" stroke="#69686E"/>
</svg>
