<svg width="30" height="30" viewBox="0 0 30 30" fill="none" xmlns="http://www.w3.org/2000/svg">
<path d="M12.6562 0C13.4766 0 14.0625 0.736607 14.0625 1.60713V12.3214C14.0625 13.2589 13.4766 13.9286 12.6562 13.9286H1.40624C0.644531 13.9286 0 13.2589 0 12.3214V1.60713C0 0.736607 0.644531 0 1.40624 0H12.6562ZM17.3438 0H28.5938C29.4141 0 30 0.736607 30 1.60713V12.3214C30 13.2589 29.4141 13.9286 28.5938 13.9286H17.3438C16.5821 13.9286 15.9376 13.2589 15.9376 12.3214V1.60713C15.9376 0.736607 16.5821 0 17.3438 0ZM30 17.6786V28.3929C30 29.3303 29.4141 30 28.5938 30H17.3438C16.5821 30 15.9376 29.3303 15.9376 28.3929V17.6786C15.9376 16.808 16.5821 16.0714 17.3438 16.0714H28.5938C29.4141 16.0714 30 16.808 30 17.6786ZM12.6562 30H1.40624C0.644531 30 0 29.3303 0 28.3929V17.6786C0 16.808 0.644531 16.0714 1.40624 16.0714H12.6562C13.4766 16.0714 14.0625 16.808 14.0625 17.6786V28.3929C14.0625 29.3303 13.4766 30 12.6562 30Z" fill="#69686E"/>
</svg>
