<svg width="30" height="30" viewBox="0 0 30 30" fill="currentcolor" color="#ffffff" xmlns="http://www.w3.org/2000/svg">
<path d="M15 5.80644C18.2057 5.80644 20.8065 8.40724 20.8065 11.6129C20.8065 14.8185 18.2057 17.4193 15 17.4193C11.7944 17.4193 9.19356 14.8185 9.19356 11.6129C9.19356 8.40724 11.7944 5.80644 15 5.80644ZM15 14.5161C16.6332 14.5161 17.9032 13.2459 17.9032 11.6129C17.9032 10.0403 16.6332 8.70966 15 8.70966C13.4274 8.70966 12.0968 10.0403 12.0968 11.6129C12.0968 13.2459 13.4274 14.5161 15 14.5161ZM15 0C23.2863 0 30 6.7137 30 15C30 23.2862 23.2863 30 15 30C6.71373 30 0 23.2862 0 15C0 6.7137 6.71373 0 15 0ZM15 27.0967C18.0243 27.0967 20.8065 26.0079 22.9234 24.1936C22.0162 22.8023 20.4435 21.8346 18.6896 21.8346C17.4194 22.1975 16.2097 22.379 15 22.379C13.8508 22.379 12.6411 22.1975 11.371 21.8346C9.61695 21.8951 8.04436 22.8023 7.1371 24.1936C9.25405 26.0079 12.0363 27.0967 15 27.0967ZM5.20162 22.016C6.65324 20.141 8.95162 18.8709 11.5524 18.8709C12.1573 18.8709 13.125 19.4757 15 19.4757C16.9355 19.4757 17.9032 18.8709 18.508 18.8709C21.1088 18.8709 23.4073 20.141 24.8589 22.016C26.3106 20.0806 27.0968 17.6612 27.0968 15C27.0968 8.34675 21.7137 2.90323 15 2.90323C8.34679 2.90323 2.90322 8.34675 2.90322 15C2.90322 17.6612 3.75001 20.0806 5.20162 22.016Z" fill="#69686E"/>
</svg>
