<svg width="32" height="32" viewBox="0 0 32 32" fill="none" xmlns="http://www.w3.org/2000/svg">
<path d="M16 9.91345C15.2007 9.91345 14.4092 10.0709 13.6708 10.3768C12.9323 10.6827 12.2613 11.131 11.6961 11.6962C11.1309 12.2614 10.6826 12.9324 10.3767 13.6708C10.0708 14.4093 9.91337 15.2008 9.91337 16.0001C9.91337 16.7994 10.0708 17.5909 10.3767 18.3293C10.6826 19.0678 11.1309 19.7388 11.6961 20.304C12.2613 20.8692 12.9323 21.3175 13.6708 21.6234C14.4092 21.9293 15.2007 22.0867 16 22.0867C17.6143 22.0867 19.1624 21.4454 20.3039 20.304C21.4454 19.1625 22.0866 17.6144 22.0866 16.0001C22.0866 14.3858 21.4454 12.8376 20.3039 11.6962C19.1624 10.5547 17.6143 9.91345 16 9.91345ZM11.7885 16.0001C11.7885 14.8831 12.2322 13.8119 13.022 13.0221C13.8118 12.2323 14.883 11.7886 16 11.7886C17.117 11.7886 18.1882 12.2323 18.978 13.0221C19.7678 13.8119 20.2115 14.8831 20.2115 16.0001C20.2115 17.117 19.7678 18.1883 18.978 18.9781C18.1882 19.7679 17.117 20.2116 16 20.2116C14.883 20.2116 13.8118 19.7679 13.022 18.9781C12.2322 18.1883 11.7885 17.117 11.7885 16.0001Z" fill="#69686E" stroke="#69686E"/>
<path d="M19.3677 3.51734C18.3795 0.160885 13.6205 0.160885 12.6323 3.51734L12.456 4.11551C12.387 4.34981 12.2664 4.56569 12.1032 4.74734C11.9399 4.92899 11.738 5.0718 11.5124 5.1653C11.2867 5.25879 11.043 5.30061 10.7991 5.28768C10.5552 5.27475 10.3173 5.2074 10.1028 5.09057L9.55522 4.79055C6.48003 3.11795 3.11794 6.4819 4.79242 9.55522L5.09057 10.1028C5.2074 10.3173 5.27475 10.5552 5.28768 10.7991C5.30061 11.043 5.25879 11.2867 5.1653 11.5124C5.0718 11.738 4.92899 11.9399 4.74734 12.1032C4.56569 12.2664 4.34981 12.387 4.11551 12.456L3.51734 12.6323C0.160885 13.6205 0.160885 18.3795 3.51734 19.3677L4.11551 19.544C4.34981 19.613 4.56569 19.7336 4.74734 19.8968C4.92899 20.0601 5.0718 20.262 5.1653 20.4876C5.25879 20.7133 5.30061 20.957 5.28768 21.2009C5.27475 21.4448 5.2074 21.6827 5.09057 21.8972L4.79055 22.4448C3.11795 25.52 6.48003 28.8839 9.55522 27.2076L10.1028 26.9094C10.3173 26.7926 10.5552 26.7253 10.7991 26.7123C11.043 26.6994 11.2867 26.7412 11.5124 26.8347C11.738 26.9282 11.9399 27.071 12.1032 27.2527C12.2664 27.4343 12.387 27.6502 12.456 27.8845L12.6323 28.4827C13.6205 31.8391 18.3795 31.8391 19.3677 28.4827L19.544 27.8845C19.613 27.6502 19.7336 27.4343 19.8968 27.2527C20.0601 27.071 20.262 26.9282 20.4876 26.8347C20.7133 26.7412 20.957 26.6994 21.2009 26.7123C21.4448 26.7253 21.6827 26.7926 21.8972 26.9094L22.4448 27.2095C25.52 28.8839 28.8839 25.5181 27.2076 22.4448L26.9094 21.8972C26.7926 21.6827 26.7253 21.4448 26.7123 21.2009C26.6994 20.957 26.7412 20.7133 26.8347 20.4876C26.9282 20.262 27.071 20.0601 27.2527 19.8968C27.4343 19.7336 27.6502 19.613 27.8845 19.544L28.4827 19.3677C31.8391 18.3795 31.8391 13.6205 28.4827 12.6323L27.8845 12.456C27.6502 12.387 27.4343 12.2664 27.2527 12.1032C27.071 11.9399 26.9282 11.738 26.8347 11.5124C26.7412 11.2867 26.6994 11.043 26.7123 10.7991C26.7253 10.5552 26.7926 10.3173 26.9094 10.1028L27.2095 9.55522C28.8839 6.48003 25.5181 3.11794 22.4448 4.79242L21.8972 5.09057C21.6827 5.2074 21.4448 5.27475 21.2009 5.28768C20.957 5.30061 20.7133 5.25879 20.4876 5.1653C20.262 5.0718 20.0601 4.92899 19.8968 4.74734C19.7336 4.56569 19.613 4.34981 19.544 4.11551L19.3677 3.51734ZM14.4305 4.048C14.8918 2.48228 17.1082 2.48228 17.5695 4.048L17.7457 4.64617C17.8939 5.14886 18.1527 5.61202 18.5031 6.00169C18.8536 6.39136 19.2868 6.69766 19.771 6.89814C20.2552 7.09862 20.7782 7.1882 21.3015 7.1603C21.8248 7.13241 22.3353 6.98774 22.7954 6.73692L23.3411 6.4369C24.7737 5.65873 26.3413 7.22445 25.5612 8.65892L25.2631 9.20645C25.0126 9.66665 24.8683 10.1771 24.8407 10.7003C24.8131 11.2235 24.903 11.7462 25.1036 12.2302C25.3042 12.7142 25.6106 13.1472 26.0003 13.4974C26.39 13.8476 26.8531 14.1062 27.3557 14.2543L27.952 14.4305C29.5177 14.8918 29.5177 17.1082 27.952 17.5695L27.3538 17.7457C26.8511 17.8939 26.388 18.1527 25.9983 18.5031C25.6086 18.8536 25.3023 19.2868 25.1019 19.771C24.9014 20.2552 24.8118 20.7782 24.8397 21.3015C24.8676 21.8248 25.0123 22.3353 25.2631 22.7954L25.5631 23.3411C26.3413 24.7737 24.7755 26.3413 23.3411 25.5612L22.7954 25.2631C22.3351 25.0123 21.8246 24.8677 21.3011 24.8399C20.7777 24.8121 20.2547 24.9019 19.7705 25.1025C19.2862 25.3032 18.853 25.6097 18.5027 25.9996C18.1523 26.3895 17.8937 26.8529 17.7457 27.3557L17.5695 27.952C17.1082 29.5177 14.8918 29.5177 14.4305 27.952L14.2543 27.3538C14.106 26.8514 13.8473 26.3885 13.497 25.999C13.1467 25.6095 12.7137 25.3034 12.2297 25.1029C11.7457 24.9025 11.223 24.8128 10.6999 24.8405C10.1768 24.8682 9.66653 25.0126 9.20645 25.2631L8.65892 25.5631C7.22633 26.3413 5.65873 24.7755 6.43878 23.3411L6.73692 22.7954C6.9881 22.3352 7.13304 21.8246 7.16112 21.301C7.1892 20.7775 7.09971 20.2543 6.8992 19.7698C6.69869 19.2854 6.39226 18.8519 6.0024 18.5014C5.61253 18.1508 5.14912 17.892 4.64617 17.7439L4.048 17.5676C2.48228 17.1063 2.48228 14.8899 4.048 14.4287L4.64617 14.2524C5.14833 14.1041 5.61099 13.8454 6.00027 13.4952C6.38955 13.145 6.6956 12.7122 6.89603 12.2285C7.09646 11.7448 7.1862 11.2223 7.15867 10.6995C7.13114 10.1766 6.98704 9.66646 6.73692 9.20645L6.4369 8.65892C5.65873 7.22633 7.22445 5.65873 8.65892 6.43878L9.20645 6.73692C9.66653 6.98739 10.1768 7.13177 10.6999 7.15948C11.223 7.1872 11.7457 7.09754 12.2297 6.89709C12.7137 6.69663 13.1467 6.39045 13.497 6.00098C13.8473 5.6115 14.106 5.14859 14.2543 4.64617L14.4305 4.048Z" fill="#69686E" stroke="#69686E"/>
</svg>
