<svg width="30" height="30" viewBox="0 0 30 30" fill="none" xmlns="http://www.w3.org/2000/svg">
<path d="M1.50658 10.0524L9.69801 8.82241L13.401 1.03244C14.0181 -0.314704 15.9258 -0.373275 16.5991 1.03244L20.2459 8.82241L28.4935 10.0524C29.9522 10.2867 30.5132 12.161 29.4472 13.2738L23.5561 19.3067L24.9588 27.7995C25.1832 29.3223 23.6122 30.4938 22.3218 29.7909L14.9719 25.7494L7.6782 29.7909C6.38778 30.4938 4.81681 29.3223 5.04124 27.7995L6.44389 19.3067L0.55278 13.2738C-0.513228 12.161 0.0478351 10.2867 1.50658 10.0524ZM9.36137 18.3109L8.01484 26.3937L14.9719 22.5866L21.9852 26.3937L20.6386 18.3109L26.3053 12.571L18.5066 11.3995L14.9719 4.01957L11.4934 11.3995L3.69471 12.571L9.36137 18.3109Z" fill="#69686E"/>
</svg>
